<?xml version="1.0" standalone="no"?>
<!DOCTYPE svg PUBLIC "-//W3C//DTD SVG 1.1//EN" "http://www.w3.org/Graphics/SVG/1.1/DTD/svg11.dtd" >
<svg xmlns="http://www.w3.org/2000/svg">
<metadata></metadata>
<defs>
<font id="simplon_bpmedium" horiz-adv-x="598" >
<font-face units-per-em="2048" ascent="1536" descent="-512" />
<missing-glyph horiz-adv-x="448" />
<glyph unicode="&#xfb01;" horiz-adv-x="1183" d="M45 854v203h150v125q0 125 59 188.5t192 63.5h224v-207h-162q-63 0 -80.5 -20.5t-17.5 -80.5v-69h260v-203h-260v-854h-215v854h-150zM827 0v1057h215v-1057h-215zM827 1214v220h215v-220h-215z" />
<glyph unicode="&#xfb02;" horiz-adv-x="1243" d="M45 854v203h150v125q0 125 59 188.5t192 63.5h224v-207h-162q-63 0 -80.5 -20.5t-17.5 -80.5v-69h260v-203h-260v-854h-215v854h-150zM823 252v1182h215v-1127q0 -59 17.5 -79.5t81.5 -20.5h32v-207h-94q-133 0 -192.5 63.5t-59.5 188.5z" />
<glyph unicode="&#xfb03;" horiz-adv-x="1869" d="M45 854v203h150v125q0 125 59 188.5t192 63.5h224v-207h-162q-63 0 -80.5 -20.5t-17.5 -80.5v-69h260v-203h-260v-854h-215v854h-150zM731 854v203h150v125q0 125 59 188.5t193 63.5h223v-207h-162q-63 0 -80.5 -20.5t-17.5 -80.5v-69h260v-203h-260v-854h-215v854h-150z M1513 0v1057h216v-1057h-216zM1513 1214v220h216v-220h-216z" />
<glyph unicode="&#xfb04;" horiz-adv-x="1929" d="M45 854v203h150v125q0 125 59 188.5t192 63.5h224v-207h-162q-63 0 -80.5 -20.5t-17.5 -80.5v-69h260v-203h-260v-854h-215v854h-150zM731 854v203h150v125q0 125 59 188.5t193 63.5h223v-207h-162q-63 0 -80.5 -20.5t-17.5 -80.5v-69h260v-203h-260v-854h-215v854h-150z M1509 252v1182h215v-1127q0 -59 17.5 -79.5t81.5 -20.5h32v-207h-94q-133 0 -192.5 63.5t-59.5 188.5z" />
<glyph horiz-adv-x="2048" />
<glyph horiz-adv-x="2048" />
<glyph unicode="&#xd;" horiz-adv-x="2048" />
<glyph unicode=" "  horiz-adv-x="448" />
<glyph unicode="&#x09;" horiz-adv-x="448" />
<glyph unicode="&#xa0;" horiz-adv-x="448" />
<glyph unicode="!" d="M162 0v274h274v-274h-274zM190 430v1004h216v-1004h-216z" />
<glyph unicode="&#x22;" horiz-adv-x="948" d="M152 975v459h215v-459h-215zM582 975v459h215v-459h-215z" />
<glyph unicode="#" horiz-adv-x="1433" d="M137 395v187h180l68 270h-182v186h229l98 396h205l-98 -396h319l99 396h205l-99 -396h135v-186h-182l-67 -270h184v-187h-230l-98 -395h-205l99 395h-320l-98 -395h-205l98 395h-135zM522 582h320l67 270h-319z" />
<glyph unicode="$" horiz-adv-x="1058" d="M72 444h215q6 -109 58 -175t144 -81v437l-100 39q-135 53 -215 148t-80 249q0 90 30 160.5t82 120t124.5 77t158.5 33.5v186h89v-186q166 -14 264 -122.5t110 -278.5h-215q-10 76 -50 127t-109 65v-418l106 -41q162 -63 226.5 -165.5t64.5 -245.5q0 -166 -98.5 -273.5 t-298.5 -117.5v-187h-89v187q-98 6 -173.5 43.5t-129 99t-83 143.5t-31.5 176zM309 1061q0 -84 48.5 -126t115.5 -69l16 -6v385q-92 -10 -136 -61t-44 -123zM578 188q90 10 136 59.5t46 125.5q0 63 -37 118.5t-139 96.5l-6 2v-402z" />
<glyph unicode="%" horiz-adv-x="1794" d="M127 887v262q0 57 14.5 110.5t47 95.5t87 66.5t134.5 24.5t134 -24.5t87 -66.5t47 -95.5t14 -110.5v-262q0 -57 -14 -110.5t-47 -95.5t-87 -66.5t-134 -24.5t-134.5 24.5t-87 66.5t-47 95t-14.5 111zM301 854q0 -47 27 -79t82 -32t81.5 32t26.5 79v328q0 47 -26.5 78.5 t-81.5 31.5t-82 -31.5t-27 -78.5v-328zM307 0l985 1434h195l-985 -1434h-195zM1100 285v262q0 57 14 110.5t47 95.5t87.5 66.5t133.5 24.5q80 0 134.5 -24.5t87 -66.5t47 -95.5t14.5 -110.5v-262q0 -57 -14.5 -110.5t-47 -95.5t-87 -66.5t-134.5 -24.5t-134 24.5t-87 66.5 t-47 95t-14 111zM1274 252q0 -47 26.5 -79t81.5 -32t82 32t27 79v328q0 47 -26.5 78.5t-82.5 31.5q-55 0 -81.5 -31.5t-26.5 -78.5v-328z" />
<glyph unicode="&#x26;" horiz-adv-x="1234" d="M98 410q0 102 46 184t124 123q-76 41 -123 122t-47 183q0 119 43 198.5t108.5 127t142.5 67t147 19.5h225v-207h-225q-100 0 -163 -53.5t-63 -151.5q0 -94 59.5 -148.5t166.5 -54.5h225v164h215v-164h252v-207h-252v-612h-449q-74 0 -149.5 21.5t-139 69.5t-103.5 126 t-40 193zM313 410q0 -98 58.5 -150.5t158.5 -52.5h234v405h-234q-100 0 -158.5 -52t-58.5 -150z" />
<glyph unicode="'" horiz-adv-x="518" d="M152 975v459h215v-459h-215z" />
<glyph unicode="(" d="M184 -43v1225q0 125 59.5 188.5t192.5 63.5h94v-193h-49q-61 0 -81.5 -23.5t-20.5 -80.5v-1135q0 -57 20.5 -80.5t81.5 -23.5h49v-193h-94q-133 0 -192.5 63.5t-59.5 188.5z" />
<glyph unicode=")" d="M68 -102h49q61 0 81.5 23.5t20.5 80.5v1135q0 57 -20.5 80.5t-81.5 23.5h-49v193h94q133 0 192.5 -63.5t59.5 -188.5v-1225q0 -125 -59.5 -188.5t-192.5 -63.5h-94v193z" />
<glyph unicode="*" horiz-adv-x="1034" d="M125 1081l57 176l242 -77v254h186v-254l242 77l57 -176l-241 -77l149 -207l-149 -109l-150 205l-151 -205l-150 109l150 207z" />
<glyph unicode="+" horiz-adv-x="1142" d="M131 481v187h348v346h187v-346h346v-187h-346v-348h-187v348h-348z" />
<glyph unicode="," d="M162 0v274h274v-274l-80 -213h-161l79 213h-112z" />
<glyph unicode="-" horiz-adv-x="794" d="M100 481v187h594v-187h-594z" />
<glyph unicode="." d="M162 0v274h274v-274h-274z" />
<glyph unicode="/" horiz-adv-x="747" d="M-23 0l580 1434h213l-580 -1434h-213z" />
<glyph unicode="0" horiz-adv-x="1118" d="M119 418v598q0 131 43 216t108.5 134t142 68.5t146.5 19.5t146.5 -19.5t142 -68.5t108.5 -134t43 -216v-598q0 -131 -43 -216t-108.5 -134.5t-142 -68.5t-146.5 -19t-146.5 19t-142 68.5t-108.5 134.5t-43 216zM334 422q0 -121 62.5 -178.5t162.5 -57.5t162.5 57.5 t62.5 178.5v590q0 121 -62.5 178t-162.5 57t-162.5 -57t-62.5 -178v-590z" />
<glyph unicode="1" horiz-adv-x="735" d="M84 930v268l274 236h215v-1434h-215v1165z" />
<glyph unicode="2" horiz-adv-x="1062" d="M86 0v207l514 532q72 76 112 142.5t40 146.5q0 111 -62.5 165t-163.5 54q-100 0 -162.5 -57t-62.5 -178v-19h-215v23q0 131 43 216t108.5 134t142.5 68.5t146 19.5q70 0 147 -19.5t142.5 -66.5t108.5 -129t43 -207q0 -66 -12.5 -120t-38 -105t-64.5 -100.5t-90 -102.5 l-383 -397h588v-207h-881z" />
<glyph unicode="3" horiz-adv-x="1075" d="M84 408v2h215v-2q4 -113 69.5 -167.5t163.5 -54.5t158 52.5t60 156.5q0 102 -63.5 161.5t-162.5 59.5h-118v199h118q106 0 166 57.5t60 151.5q0 98 -62.5 160.5t-163.5 62.5q-98 0 -159.5 -54t-65.5 -167v-2h-215v2q2 125 46 208t108.5 132t141.5 68.5t144 19.5 q70 0 147 -22.5t142.5 -72.5t108.5 -133t43 -202q0 -102 -47.5 -184t-122.5 -123q39 -20 70.5 -54t53 -77t34 -91.5t12.5 -99.5q0 -115 -38 -193.5t-98.5 -127.5t-137.5 -71.5t-152 -22.5q-72 0 -152 19t-146.5 67.5t-110.5 131.5t-46 210z" />
<glyph unicode="4" horiz-adv-x="1064" d="M18 354v199l637 881h215v-881h150v-199h-150v-354h-215v354h-637zM268 553h387v534z" />
<glyph unicode="5" horiz-adv-x="1077" d="M119 408v2h215v-2q4 -113 69.5 -167.5t163.5 -54.5t157.5 52.5t59.5 156.5v86q0 121 -62.5 178.5t-162.5 57.5q-74 0 -128 -32t-79 -95h-215v844h807v-207h-592v-377q35 33 99.5 53.5t130.5 20.5q63 0 136 -19.5t135 -69t104 -134.5t42 -216v-90q0 -115 -37.5 -193.5 t-98 -127.5t-137.5 -71.5t-153 -22.5q-72 0 -151.5 19t-146 67.5t-110.5 131.5t-46 210z" />
<glyph unicode="6" horiz-adv-x="1105" d="M119 418v598q0 131 43 216t108.5 134t142 68.5t146.5 19.5q68 0 144.5 -19.5t142 -67.5t108.5 -131t45 -210v-2h-215v2q-4 113 -65.5 167t-159.5 54q-100 0 -162.5 -57t-62.5 -178v-176q39 33 103.5 53t135.5 20q61 0 135 -19.5t138.5 -68.5t108.5 -134t44 -216v-53 q0 -131 -43 -216t-108.5 -134.5t-142 -68.5t-146.5 -19t-146.5 19t-142 68.5t-108.5 134.5t-43 216zM334 422q0 -121 62.5 -178.5t162.5 -57.5t162.5 57.5t62.5 178.5v45q0 121 -62.5 178t-162.5 57t-162.5 -57t-62.5 -178v-45z" />
<glyph unicode="7" horiz-adv-x="929" d="M25 1227v207h868v-207l-442 -1227h-228l443 1227h-641z" />
<glyph unicode="8" horiz-adv-x="1101" d="M111 401q0 111 39.5 187t111.5 133q-72 61 -104.5 136t-32.5 179q0 119 41 199t103.5 129t138 69.5t143.5 20.5t143.5 -20.5t138 -69.5t103.5 -129t41 -199q0 -104 -33 -179t-104 -136q72 -57 111.5 -133t39.5 -187q0 -121 -43 -201.5t-108.5 -130t-143 -69.5t-145.5 -20 t-145.5 20t-143 69.5t-108.5 130.5t-43 201zM326 408q0 -113 63.5 -166.5t161.5 -53.5t161.5 54.5t63.5 165.5q0 104 -63.5 161.5t-161.5 57.5t-161.5 -57.5t-63.5 -161.5zM340 1032q0 -104 58.5 -159.5t148.5 -55.5q92 0 153.5 55.5t61.5 159.5t-61.5 159.5t-153.5 55.5 q-90 0 -148.5 -55t-58.5 -160z" />
<glyph unicode="9" horiz-adv-x="1105" d="M106 408v2h216v-2q4 -113 65.5 -167.5t159.5 -54.5q100 0 162.5 57.5t62.5 178.5v176q-39 -33 -103.5 -53.5t-136.5 -20.5q-61 0 -135.5 19.5t-139 69t-108 134t-43.5 216.5v53q0 131 43.5 216t109 134t142 68.5t146.5 19.5t146.5 -19.5t142 -68.5t108.5 -134t43 -216 v-598q0 -131 -43 -216t-108.5 -134.5t-142.5 -68.5t-146 -19q-68 0 -144.5 19t-142 67.5t-108.5 131.5t-46 210zM322 967q0 -121 62 -178.5t163 -57.5q100 0 162.5 57.5t62.5 178.5v45q0 121 -62.5 178t-162.5 57t-162.5 -57t-62.5 -178v-45z" />
<glyph unicode=":" d="M162 0v274h274v-274h-274zM162 782v275h274v-275h-274z" />
<glyph unicode=";" d="M162 0v274h274v-274l-80 -213h-161l79 213h-112zM162 782v275h274v-275h-274z" />
<glyph unicode="&#x3c;" horiz-adv-x="1142" d="M131 420v221l881 430v-209l-680 -332l680 -331v-209z" />
<glyph unicode="=" horiz-adv-x="1142" d="M131 244v186h881v-186h-881zM131 696v187h881v-187h-881z" />
<glyph unicode="&#x3e;" horiz-adv-x="1142" d="M131 -10v209l680 331l-680 332v209l881 -430v-221z" />
<glyph unicode="?" horiz-adv-x="1056" d="M74 1024v2q2 127 45 210t108.5 131t142 67.5t144.5 19.5q70 0 146.5 -19.5t142 -68.5t108.5 -134t43 -216q0 -106 -50 -195.5t-122 -154.5l-106 -99q-37 -35 -50.5 -56.5t-13.5 -55.5v-25h-215v45q0 35 5.5 62.5t19.5 54t38.5 53.5t61.5 62l107 98q41 37 75.5 89 t34.5 118q0 121 -62.5 178t-162.5 57q-98 0 -159.5 -54t-65.5 -167v-2h-215zM369 0v274h274v-274h-274z" />
<glyph unicode="@" horiz-adv-x="1875" d="M131 412v233q0 160 36 283t97.5 212t142 149.5t171 97t182.5 52t178 15.5q84 0 177 -15.5t183.5 -52t171 -97t142 -149.5t97.5 -212t36 -283v-387q0 -121 -66.5 -199.5t-210.5 -78.5q-113 0 -187.5 33.5t-117.5 86.5q-51 -61 -131 -90.5t-184 -29.5q-72 0 -137.5 18 t-114.5 56t-79 97.5t-30 141.5q0 45 11.5 92t38 90t70.5 79t110 56q96 29 202.5 40.5t241.5 21.5q-8 104 -68.5 155.5t-154.5 51.5q-80 0 -136.5 -37t-78.5 -113h-219q14 104 59 174t107.5 110t133 56t134.5 16q70 0 146.5 -19t142 -68.5t108.5 -134.5t43 -216v-383 q0 -47 26 -69.5t60 -22.5q35 0 60.5 22.5t25.5 69.5v387q0 182 -59 301t-150.5 187.5t-199 95.5t-203.5 27t-204.5 -27t-199 -95.5t-149.5 -187t-59 -301.5v-245q0 -182 59 -301t149.5 -188t199 -95.5t204.5 -26.5q94 0 196.5 24.5t192.5 88.5l103 -170 q-115 -76 -245 -105.5t-247 -29.5q-86 0 -178 15t-182.5 52t-171 97.5t-142 149.5t-97.5 212t-36 283zM702 311q0 -66 47.5 -95.5t133.5 -29.5q45 0 95 9.5t91 35t67.5 71.5t26.5 120v59q-141 -10 -245.5 -23.5t-163.5 -47.5q-20 -12 -36 -35t-16 -64z" />
<glyph unicode="A" horiz-adv-x="1261" d="M16 0l502 1434h225l502 -1434h-225l-121 346h-537l-120 -346h-226zM432 549h397l-198 569z" />
<glyph unicode="B" horiz-adv-x="1263" d="M152 0v1434h553q215 0 327.5 -112t112.5 -298q0 -92 -36 -167t-105 -124q92 -55 134 -139t42 -180q0 -193 -112 -303.5t-329 -110.5h-587zM371 217h368q102 0 159.5 50t57.5 149q0 98 -57 148t-160 50h-368v-397zM371 831h334q100 0 158.5 49.5t58.5 143.5t-58.5 143.5 t-158.5 49.5h-334v-386z" />
<glyph unicode="C" horiz-adv-x="1222" d="M109 485v463q0 117 36.5 210t104 158.5t163 101.5t210.5 36q111 0 201.5 -32.5t157.5 -92t106.5 -146.5t46.5 -194h-220q-6 63 -34.5 110.5t-68.5 78t-90 45t-99 14.5q-53 0 -106.5 -17.5t-95.5 -52t-67.5 -89t-25.5 -130.5v-463q0 -76 25.5 -130t67.5 -90t95 -52 t107 -16q49 0 99 14t90 45t68.5 77t34.5 111h220q-6 -106 -46 -192t-107 -146.5t-158 -93t-201 -32.5q-115 0 -210.5 35.5t-163 101t-104 159t-36.5 209.5z" />
<glyph unicode="D" horiz-adv-x="1288" d="M152 0v1434h514q115 0 210 -36t162.5 -101.5t104.5 -159t37 -209.5v-422q0 -117 -37 -210t-104.5 -158.5t-163 -101.5t-209.5 -36h-514zM371 217h295q53 0 106 17.5t95 53.5t68 91t26 131v414q0 76 -26 131t-68 91t-95 53.5t-106 17.5h-295v-1000z" />
<glyph unicode="E" horiz-adv-x="1116" d="M152 0v1434h845v-217h-626v-386h626v-217h-626v-397h626v-217h-845z" />
<glyph unicode="F" horiz-adv-x="1095" d="M152 0v1434h845v-217h-626v-386h626v-217h-626v-614h-219z" />
<glyph unicode="G" horiz-adv-x="1236" d="M109 485v463q0 117 36.5 210t104 158.5t163 101.5t210.5 36q109 0 199.5 -31.5t157.5 -91t106.5 -144.5t48.5 -192h-220q-8 63 -36.5 108.5t-68.5 75t-89 44t-98 14.5q-53 0 -106.5 -17.5t-95.5 -52t-67.5 -89t-25.5 -130.5v-463q0 -76 25.5 -130t67.5 -90t95 -52 t107 -16q53 0 106 16t95 52t68 90.5t26 129.5v93h-295v210h514v-303q0 -117 -37 -210t-104.5 -158.5t-163 -101t-209.5 -35.5q-115 0 -210.5 35.5t-163 101t-104 159t-36.5 209.5z" />
<glyph unicode="H" horiz-adv-x="1331" d="M152 0v1434h219v-603h590v603h219v-1434h-219v614h-590v-614h-219z" />
<glyph unicode="I" horiz-adv-x="522" d="M152 0v1434h219v-1434h-219z" />
<glyph unicode="J" horiz-adv-x="972" d="M16 410h220q4 -94 50 -153.5t142 -59.5q98 0 145.5 62.5t47.5 160.5v1014h219v-1014q0 -221 -109.5 -330.5t-302.5 -109.5t-300.5 106.5t-111.5 323.5z" />
<glyph unicode="K" horiz-adv-x="1292" d="M152 0v1434h219v-701l596 701h270l-502 -590l557 -844h-258l-444 674l-219 -258v-416h-219z" />
<glyph unicode="L" horiz-adv-x="1015" d="M152 0v1434h219v-1217h626v-217h-845z" />
<glyph unicode="M" horiz-adv-x="1507" d="M152 0v1434h219l383 -793l383 793h219v-1434h-217v995l-295 -610h-180l-295 610v-995h-217z" />
<glyph unicode="N" horiz-adv-x="1331" d="M152 0v1434h219l590 -1028v1028h219v-1434h-219l-590 1028v-1028h-219z" />
<glyph unicode="O" horiz-adv-x="1245" d="M109 485v463q0 117 36.5 210t104 158.5t163 101.5t210.5 36t210 -36t162.5 -101.5t104.5 -158.5t37 -210v-463q0 -117 -37 -210t-104.5 -158.5t-163 -101t-209.5 -35.5q-115 0 -210.5 35.5t-163 101t-104 159t-36.5 209.5zM328 485q0 -76 25.5 -130t67.5 -90t95 -52 t107 -16q53 0 106 16t95 52t68 90.5t26 129.5v463q0 76 -26 130.5t-68 89t-95 52t-106 17.5t-106.5 -17.5t-95.5 -52t-67.5 -89t-25.5 -130.5v-463z" />
<glyph unicode="P" horiz-adv-x="1226" d="M152 0v1434h544q125 0 216.5 -38t150.5 -101.5t88 -149.5t29 -180q0 -96 -29 -181.5t-88 -149t-150.5 -101t-216.5 -37.5h-325v-496h-219zM371 713h325q70 0 119 20.5t81 55t46 80.5t14 98q0 51 -14 97t-46 81t-81 55.5t-119 20.5h-325v-508z" />
<glyph unicode="Q" horiz-adv-x="1267" d="M109 485v463q0 117 36.5 210t104 158.5t163 101.5t210.5 36t210 -36t162.5 -101.5t104.5 -158.5t37 -210v-463q0 -176 -86 -303l127 -129l-150 -145l-133 135q-117 -63 -272 -63q-115 0 -210.5 35.5t-163 101t-104 159t-36.5 209.5zM328 485q0 -76 25.5 -130t67.5 -90 t95 -52t107 -16q53 0 108 16l-131 133l150 146l139 -142q29 57 29 135v463q0 76 -26 130.5t-68 89t-95 52t-106 17.5t-106.5 -17.5t-95.5 -52t-67.5 -89t-25.5 -130.5v-463z" />
<glyph unicode="R" horiz-adv-x="1249" d="M152 0v1434h563q215 0 327.5 -112t112.5 -298q0 -160 -82 -264.5t-239 -132.5l368 -627h-246l-362 616h-223v-616h-219zM371 827h344q100 0 158.5 50.5t58.5 144.5t-58.5 144.5t-158.5 50.5h-344v-390z" />
<glyph unicode="S" horiz-adv-x="1136" d="M61 444h224q23 -121 102.5 -184t206.5 -63q111 0 176.5 49t65.5 133q0 80 -47.5 130t-155.5 77l-254 61q-141 35 -218 141.5t-77 260.5q0 104 37 180t99.5 126t146.5 74.5t180 24.5q217 0 340 -111.5t149 -291.5h-223q-23 88 -91.5 137t-172.5 49q-129 0 -185.5 -53.5 t-56.5 -134.5q0 -84 45 -129.5t117 -61.5l246 -59q172 -41 258 -145.5t86 -278.5q0 -86 -32 -159t-91 -125t-146 -81.5t-200 -29.5q-123 0 -218.5 34.5t-162 97t-103 147.5t-45.5 185z" />
<glyph unicode="T" horiz-adv-x="1058" d="M16 1217v217h1026v-217h-403v-1217h-219v1217h-404z" />
<glyph unicode="U" horiz-adv-x="1294" d="M133 485v949h219v-949q0 -76 25.5 -130t67.5 -90t95.5 -52t106.5 -16t106.5 16t95.5 52t67.5 90.5t25.5 129.5v949h219v-949q0 -117 -37 -210t-104.5 -158.5t-162.5 -101t-210 -35.5t-210 35.5t-162.5 101t-104.5 159t-37 209.5z" />
<glyph unicode="V" horiz-adv-x="1261" d="M16 1434h226l389 -1119l389 1119h225l-502 -1434h-225z" />
<glyph unicode="W" horiz-adv-x="1523" d="M43 1434h215l182 -1004l219 799h205l219 -799l183 1004h215l-264 -1434h-207l-248 903l-248 -903h-207z" />
<glyph unicode="X" horiz-adv-x="1253" d="M25 0l454 741l-424 693h246l326 -535l325 535h246l-424 -693l455 -741h-246l-356 586l-357 -586h-245z" />
<glyph unicode="Y" horiz-adv-x="1216" d="M-6 1434h242l372 -660l373 660h242l-506 -887v-547h-219v547z" />
<glyph unicode="Z" horiz-adv-x="1198" d="M68 0v217l761 1000h-751v217h1018v-217l-762 -1000h772v-217h-1038z" />
<glyph unicode="[" d="M184 -295v1729h346v-193h-151v-1343h151v-193h-346z" />
<glyph unicode="\" horiz-adv-x="747" d="M-23 1434h213l580 -1434h-213z" />
<glyph unicode="]" d="M68 -102h151v1343h-151v193h346v-1729h-346v193z" />
<glyph unicode="^" horiz-adv-x="1277" d="M121 614l416 820h204l416 -820h-219l-299 590l-299 -590h-219z" />
<glyph unicode="_" horiz-adv-x="856" d="M-12 -96h880v-187h-880v187z" />
<glyph unicode="`" horiz-adv-x="632" d="M96 1434h277l137 -265h-172z" />
<glyph unicode="a" horiz-adv-x="1112" d="M94 293q0 45 11.5 92t38 90t70.5 79t110 56q96 29 202.5 40.5t241.5 21.5v2q-8 104 -68.5 154.5t-154.5 50.5q-80 0 -136.5 -37t-78.5 -113h-219q14 104 59 174t107.5 110t133 56t134.5 16q70 0 146.5 -19t142 -68.5t108.5 -134.5t43 -216v-647h-215v100 q-51 -61 -131 -90.5t-184 -29.5q-72 0 -137.5 18t-114.5 56t-79 97.5t-30 141.5zM309 311q0 -66 47 -95.5t133 -29.5q45 0 95.5 9.5t91.5 35t67.5 71.5t26.5 120v59q-141 -10 -245.5 -23.5t-164.5 -47.5q-20 -12 -35.5 -35t-15.5 -64z" />
<glyph unicode="b" horiz-adv-x="1134" d="M141 0v1434h215v-469q12 23 36 44t56.5 38.5t72.5 27.5t81 10q68 0 142.5 -22.5t136 -74.5t101.5 -135t40 -206v-229q0 -123 -40 -206t-101.5 -135t-136 -74.5t-142.5 -22.5q-41 0 -81 10t-72.5 26.5t-56 39t-36.5 44.5v-100h-215zM356 422q0 -121 62.5 -177.5 t163.5 -56.5q100 0 162.5 56.5t62.5 177.5v221q0 121 -62.5 177.5t-162.5 56.5t-163 -56.5t-63 -177.5v-221z" />
<glyph unicode="c" horiz-adv-x="1083" d="M113 418v229q0 131 43 216t108.5 134.5t142 68.5t146.5 19q66 0 138.5 -17t136 -60t108.5 -117t55 -186h-219q-16 88 -74.5 131t-144.5 43q-100 0 -162.5 -57.5t-62.5 -178.5v-221q0 -121 62.5 -178.5t162.5 -57.5q86 0 145.5 43t75.5 131h217q-10 -113 -55 -186.5 t-108.5 -116.5t-136.5 -60t-138 -17q-70 0 -146.5 19t-142 68.5t-108.5 134.5t-43 216z" />
<glyph unicode="d" horiz-adv-x="1134" d="M113 418v229q0 123 40 206t101 135t136 74.5t142 22.5q41 0 81 -10t73 -27.5t56.5 -39t35.5 -43.5v469h215v-1434h-215v100q-12 -23 -35.5 -45t-56.5 -38.5t-73 -26.5t-81 -10q-68 0 -142.5 22.5t-135.5 74.5t-101 135t-40 206zM328 422q0 -121 60.5 -177.5t150.5 -56.5 q100 0 169.5 56.5t69.5 177.5v221q0 121 -62.5 177.5t-162.5 56.5t-162.5 -56.5t-62.5 -177.5v-221z" />
<glyph unicode="e" horiz-adv-x="1095" d="M113 418v229q0 131 43 216t108.5 134.5t142 68.5t146.5 19t146.5 -19t142 -68.5t108.5 -134.5t43 -216v-190h-665v-35q0 -121 62.5 -178.5t162.5 -57.5q80 0 136 37t79 113h219q-14 -104 -59 -174t-107.5 -110t-133.5 -56t-134 -16q-70 0 -146.5 19t-142 68.5 t-108.5 134.5t-43 216zM328 647h450v2q-2 117 -64.5 173.5t-160.5 56.5q-100 0 -162.5 -56.5t-62.5 -173.5v-2z" />
<glyph unicode="f" horiz-adv-x="686" d="M45 854v203h150v125q0 125 59 188.5t192 63.5h224v-207h-162q-63 0 -80.5 -20.5t-17.5 -80.5v-69h260v-203h-260v-854h-215v854h-150z" />
<glyph unicode="g" horiz-adv-x="1130" d="M109 479v168q0 123 39.5 206t101 135t136.5 74.5t142 22.5q41 0 81 -10t73 -27.5t56.5 -39t35.5 -43.5v92h215v-1016q0 -131 -43 -216t-108.5 -134t-142.5 -68.5t-146 -19.5q-66 0 -137.5 17.5t-135 60.5t-108.5 115.5t-55 183.5h217q16 -86 74.5 -128t144.5 -42 q100 0 162.5 57t62.5 178v117q-12 -23 -35.5 -45.5t-56.5 -39t-73 -26.5t-81 -10q-68 0 -142.5 22.5t-136 74.5t-101 135t-39.5 206zM324 483q0 -121 62.5 -177t162.5 -56t162.5 56t62.5 177v160q0 121 -62.5 177.5t-162.5 56.5t-162.5 -56.5t-62.5 -177.5v-160z" />
<glyph unicode="h" horiz-adv-x="1148" d="M141 0v1434h215v-469q12 23 36 44t56.5 38.5t72.5 27.5t81 10q68 0 142.5 -22.5t136 -74.5t101.5 -135t40 -206v-647h-215v643q0 121 -62.5 177.5t-162.5 56.5t-163 -56.5t-63 -177.5v-643h-215z" />
<glyph unicode="i" horiz-adv-x="497" d="M141 0v1057h215v-1057h-215zM141 1214v220h215v-220h-215z" />
<glyph unicode="j" horiz-adv-x="497" d="M10 -170h33q63 0 80.5 20.5t17.5 79.5v1127h215v-1182q0 -125 -59 -188.5t-193 -63.5h-94v207zM141 1214v220h215v-220h-215z" />
<glyph unicode="k" horiz-adv-x="1077" d="M141 0v1434h215v-807l396 430h260l-381 -414l438 -643h-250l-332 487l-131 -143v-344h-215z" />
<glyph unicode="l" horiz-adv-x="557" d="M137 252v1182h215v-1127q0 -59 17.5 -79.5t81.5 -20.5h32v-207h-94q-133 0 -192.5 63.5t-59.5 188.5z" />
<glyph unicode="m" horiz-adv-x="1773" d="M141 0v1057h215v-92q10 20 34 42.5t56.5 39t70.5 27.5t75 11t79 -9t83 -27.5t77.5 -46t63.5 -66.5q53 78 145.5 113.5t176.5 35.5q74 0 149.5 -22.5t138 -74.5t102.5 -135t40 -206v-647h-215v643q0 121 -62.5 177.5t-152.5 56.5t-153 -56.5t-63 -177.5v-643h-215v643 q0 121 -62 177.5t-153 56.5q-90 0 -152.5 -56.5t-62.5 -177.5v-643h-215z" />
<glyph unicode="n" horiz-adv-x="1148" d="M141 0v1057h215v-92q12 23 36 44t56.5 38.5t72.5 27.5t81 10q68 0 142.5 -22.5t136 -74.5t101.5 -135t40 -206v-647h-215v643q0 121 -62.5 177.5t-162.5 56.5t-163 -56.5t-63 -177.5v-643h-215z" />
<glyph unicode="o" horiz-adv-x="1105" d="M113 418v229q0 131 43 216t108.5 134.5t142 68.5t146.5 19t146.5 -19t142 -68.5t108.5 -134.5t43 -216v-229q0 -131 -43 -216t-108.5 -134.5t-142 -68.5t-146.5 -19t-146.5 19t-142 68.5t-108.5 134.5t-43 216zM328 422q0 -121 62.5 -178.5t162.5 -57.5t162.5 57.5 t62.5 178.5v221q0 121 -62.5 178.5t-162.5 57.5t-162.5 -57.5t-62.5 -178.5v-221z" />
<glyph unicode="p" horiz-adv-x="1134" d="M141 -377v1434h215v-92q12 23 36 44t56.5 38.5t72.5 27.5t81 10q68 0 142.5 -22.5t136 -74.5t101.5 -135t40 -206v-229q0 -123 -40 -206t-101.5 -135t-136 -74.5t-142.5 -22.5q-41 0 -81 10t-72.5 26.5t-56 39t-36.5 44.5v-477h-215zM356 422q0 -121 62.5 -177.5 t163.5 -56.5q100 0 162.5 56.5t62.5 177.5v221q0 121 -62.5 177.5t-162.5 56.5t-163 -56.5t-63 -177.5v-221z" />
<glyph unicode="q" horiz-adv-x="1134" d="M113 418v229q0 123 40 206t101 135t136 74.5t142 22.5q41 0 81 -10t73 -27.5t56.5 -39t35.5 -43.5v92h215v-1434h-215v477q-12 -23 -35.5 -45t-56.5 -38.5t-73 -26.5t-81 -10q-68 0 -142.5 22.5t-135.5 74.5t-101 135t-40 206zM328 422q0 -121 60.5 -177.5t150.5 -56.5 q100 0 169.5 56.5t69.5 177.5v221q0 121 -62.5 177.5t-162.5 56.5t-162.5 -56.5t-62.5 -177.5v-221z" />
<glyph unicode="r" horiz-adv-x="706" d="M141 0v1057h215v-103q12 23 36 44.5t56.5 39t72.5 27.5t81 10h82v-209h-102q-100 0 -163 -56t-63 -177v-633h-215z" />
<glyph unicode="s" horiz-adv-x="987" d="M68 338h221q12 -78 78.5 -115t152.5 -37q35 0 66.5 5.5t55.5 17.5t38 33.5t14 54.5q0 53 -40 75.5t-93 35.5l-201 51q-53 12 -101 34.5t-85 59.5t-59.5 91t-22.5 130q0 78 30 136.5t81 97.5t121.5 58t150.5 19q172 0 280.5 -79.5t125.5 -257.5h-226q-12 70 -66 100.5 t-128 30.5q-25 0 -51.5 -5.5t-49 -17.5t-37 -33.5t-14.5 -52.5q0 -47 38 -67.5t81 -30.5l195 -49q72 -18 126 -44t89.5 -65t54 -93t18.5 -130q0 -78 -29.5 -136.5t-81.5 -97.5t-124 -58t-158 -19q-92 0 -172 21.5t-140.5 66.5t-97 112.5t-40.5 157.5z" />
<glyph unicode="t" horiz-adv-x="735" d="M41 854v203h149v239h216v-239h260v-203h-260v-547q0 -59 17 -79.5t81 -20.5h162v-207h-224q-133 0 -192.5 63.5t-59.5 188.5v602h-149z" />
<glyph unicode="u" horiz-adv-x="1136" d="M127 418v639h215v-635q0 -121 61.5 -177.5t157.5 -56.5t157.5 56.5t61.5 177.5v635h215v-1057h-215v100q-12 -23 -35.5 -45t-56.5 -38.5t-73 -26.5t-80 -10q-68 0 -140.5 24.5t-132 77.5t-97.5 136t-38 200z" />
<glyph unicode="v" horiz-adv-x="974" d="M0 1057h223l264 -752l265 752h223l-381 -1057h-213z" />
<glyph unicode="w" horiz-adv-x="1409" d="M14 1057h219l177 -719l180 719h229l180 -719l177 719h219l-279 -1057h-217l-194 776l-195 -776h-217z" />
<glyph unicode="x" horiz-adv-x="1007" d="M18 0l359 543l-342 514h237l232 -352l231 352h238l-342 -514l358 -543h-237l-248 379l-248 -379h-238z" />
<glyph unicode="y" horiz-adv-x="974" d="M0 1057h223l264 -752l265 752h223l-469 -1301q-47 -133 -234 -133h-110v207h43q39 0 61.5 4t35.5 16.5t23.5 33t22.5 53.5l29 77z" />
<glyph unicode="z" horiz-adv-x="921" d="M68 0v203l505 651h-491v203h760v-203l-506 -651h520v-203h-788z" />
<glyph unicode="{" horiz-adv-x="663" d="M98 473v193h66q51 0 68.5 25.5t17.5 78.5v412q0 125 59.5 188.5t192.5 63.5h94v-193h-49q-61 0 -82 -23.5t-21 -80.5v-412q0 -47 -12 -90t-53 -66q41 -23 53 -65.5t12 -89.5v-412q0 -57 20.5 -80.5t82.5 -23.5h49v-193h-94q-133 0 -192.5 63.5t-59.5 188.5v412 q0 53 -17.5 78.5t-68.5 25.5h-66z" />
<glyph unicode="|" horiz-adv-x="497" d="M152 -205v1639h194v-1639h-194z" />
<glyph unicode="}" horiz-adv-x="663" d="M68 -102h49q61 0 81.5 23.5t20.5 80.5v412q0 47 12.5 90t53.5 65q-41 23 -53.5 66t-12.5 90v412q0 57 -20.5 80.5t-81.5 23.5h-49v193h94q133 0 192.5 -63.5t59.5 -188.5v-412q0 -53 17.5 -78.5t68.5 -25.5h65v-193h-65q-51 0 -68.5 -25.5t-17.5 -78.5v-412 q0 -125 -59.5 -188.5t-192.5 -63.5h-94v193z" />
<glyph unicode="~" horiz-adv-x="1101" d="M111 565q78 80 145.5 115t134.5 35q47 0 90 -14.5t82 -33t74 -32.5t65 -14q43 0 80 19t90 75l119 -131q-78 -80 -145.5 -115t-134.5 -35q-47 0 -90 14.5t-82 33t-74 32.5t-66 14q-43 0 -79.5 -19.5t-90.5 -74.5z" />
<glyph unicode="&#xa1;" horiz-adv-x="536" d="M131 782v275h275v-275h-275zM162 -377v1004h215v-1004h-215z" />
<glyph unicode="&#xa2;" horiz-adv-x="1103" d="M123 418v229q0 119 37 201t94 132t127 73.5t137 29.5v187h88v-187q63 -4 129 -25.5t122 -65.5t95 -113.5t49 -173.5h-219q-14 76 -60 117.5t-116 51.5v-686q70 10 117 52.5t61 119.5h217q-10 -104 -49 -173.5t-95 -113.5t-121.5 -65.5t-129.5 -25.5v-187h-88v187 q-68 6 -137.5 29.5t-126.5 73.5t-94 131t-37 202zM338 422q0 -106 49 -163.5t131 -70.5v686q-82 -10 -131 -67t-49 -164v-221z" />
<glyph unicode="&#xa3;" horiz-adv-x="1232" d="M121 0v207h49q53 2 67.5 24.5t14.5 75.5v344h-131v135h131v230q0 131 43 216t108.5 134t142.5 68.5t146 19.5q70 0 146.5 -19.5t142.5 -68.5t109 -134t43 -216v-4h-215q0 121 -62.5 178t-163.5 57q-100 0 -162.5 -57t-62.5 -178v-226h451v-135h-451v-366q0 -53 -18 -78 h684v-207h-1012z" />
<glyph unicode="&#xa4;" horiz-adv-x="1460" d="M121 182l174 174q-55 72 -86 157t-31 183q0 96 31 182.5t86 157.5l-174 174l94 97l174 -177q72 55 158 87t184 32q96 0 182 -30.5t158 -85.5l174 174l94 -97l-174 -174q55 -72 87 -156.5t32 -183.5q0 -98 -31.5 -184t-87.5 -158l174 -172l-94 -96l-174 174 q-72 -55 -158 -86t-182 -31q-98 0 -184 31t-158 86l-174 -174zM385 696q0 -72 27.5 -134t75 -109t109.5 -75t134 -28t134.5 28t109.5 75t74.5 109.5t27.5 133.5q0 72 -27.5 134.5t-74.5 109.5t-109.5 74.5t-134.5 27.5t-134 -27.5t-109.5 -74.5t-75 -109.5t-27.5 -134.5z " />
<glyph unicode="&#xa5;" horiz-adv-x="1302" d="M37 1434h237l377 -664l377 664h238l-430 -752h254v-135h-332v-137h332v-136h-332v-274h-215v274h-332v136h332v137h-332v135h254z" />
<glyph unicode="&#xa6;" horiz-adv-x="497" d="M152 -205v694h194v-694h-194zM152 739v695h194v-695h-194z" />
<glyph unicode="&#xa7;" horiz-adv-x="1101" d="M115 551q0 98 43 174t123 121q-49 43 -80 107.5t-31 156.5q0 74 25.5 136.5t74.5 108.5t119 72.5t158 26.5q352 0 393 -340h-199q-14 72 -61 111t-133 39q-72 0 -126 -41t-54 -117q0 -61 35.5 -102t82.5 -58l220 -78q49 -18 99 -41.5t91 -64.5t66.5 -103.5t25.5 -154.5 q0 -211 -168 -299q53 -49 83 -115.5t30 -155.5q0 -170 -103.5 -250.5t-275.5 -80.5q-178 0 -280.5 92t-122.5 266h200q10 -80 66.5 -124t136.5 -44q78 0 131 33t53 111q0 59 -29.5 104t-113.5 76l-197 69q-49 18 -99 42t-91 65t-66.5 103.5t-25.5 154.5zM309 547 q0 -66 35 -106t107 -66l139 -51q96 6 149.5 54t53.5 128q0 66 -35 106.5t-107 67.5l-139 49q-96 -6 -148.5 -54t-54.5 -128z" />
<glyph unicode="&#xa8;" horiz-adv-x="860" d="M125 1192v219h215v-219h-215zM520 1192v219h215v-219h-215z" />
<glyph unicode="&#xa9;" horiz-adv-x="1634" d="M80 717q0 154 58.5 288t157.5 233t233.5 157.5t287.5 58.5q154 0 288 -58.5t233.5 -157.5t157.5 -233.5t58 -287.5q0 -154 -58 -288t-157.5 -233.5t-233.5 -157.5t-288 -58t-288 58t-233 157.5t-157.5 233.5t-58.5 288zM274 717q0 -113 42 -212t116 -173t173.5 -117 t211.5 -43q113 0 212 43t173 117t116 173t42 212t-42 212t-116 173t-173 117t-212 43t-212 -43t-173 -117t-116 -173t-42 -212zM510 614v205q0 133 77 217t230 84q152 0 228.5 -79.5t80.5 -209.5h-176q-4 51 -38.5 83t-94.5 32q-63 0 -98 -34.5t-35 -92.5v-205q0 -57 35 -93 t98 -36q59 0 94 31t39 84h176q-4 -129 -80.5 -208t-228.5 -79q-154 0 -230.5 83t-76.5 218z" />
<glyph unicode="&#xaa;" horiz-adv-x="677" d="M45 991q0 37 6 63.5t18.5 47t33 38t49.5 34.5q20 12 55 20t75 14t80.5 10.5t73.5 6.5q-10 31 -34.5 52t-69.5 21q-39 0 -63.5 -16t-37.5 -41h-174q10 41 28.5 79t51.5 66.5t80 46t115 17.5q80 0 134 -24.5t87 -65.5t47 -94.5t14 -110.5v-334h-174v76q-16 -35 -52 -61.5 t-114 -26.5q-117 0 -173 51t-56 131zM219 1014q0 -16 16.5 -37t69.5 -21q66 0 100.5 36t34.5 79v12q-59 -4 -114.5 -9t-71.5 -11q-25 -12 -30 -22.5t-5 -26.5z" />
<glyph unicode="&#xab;" horiz-adv-x="995" d="M104 463v192l353 310v-258l-168 -148l168 -147v-258zM522 463v192l352 310v-258l-167 -148l167 -147v-258z" />
<glyph unicode="&#xac;" horiz-adv-x="1142" d="M131 481v187h881v-535h-187v348h-694z" />
<glyph unicode="&#xad;" horiz-adv-x="794" d="M100 481v187h594v-187h-594z" />
<glyph unicode="&#xae;" horiz-adv-x="1634" d="M80 717q0 154 58.5 288t157.5 233t233.5 157.5t287.5 58.5q154 0 288 -58.5t233.5 -157.5t157.5 -233.5t58 -287.5q0 -154 -58 -288t-157.5 -233.5t-233.5 -157.5t-288 -58t-288 58t-233 157.5t-157.5 233.5t-58.5 288zM274 717q0 -113 42 -212t116 -173t173.5 -117 t211.5 -43q113 0 212 43t173 117t116 173t42 212t-42 212t-116 173t-173 117t-212 43t-212 -43t-173 -117t-116 -173t-42 -212zM535 324v784h348q123 0 188.5 -62.5t65.5 -173.5q0 -88 -43 -146t-121 -81l188 -321h-203l-182 311h-67v-311h-174zM709 805h180q35 0 54.5 16.5 t19.5 46.5q0 35 -19.5 51.5t-54.5 16.5h-180v-131z" />
<glyph unicode="&#xaf;" horiz-adv-x="897" d="M119 1214v175h659v-175h-659z" />
<glyph unicode="&#xb0;" horiz-adv-x="823" d="M92 1124q0 66 25.5 124.5t68.5 101.5t101.5 68.5t124.5 25.5t124 -25.5t101 -68.5t68.5 -101.5t25.5 -124.5t-25.5 -124t-68.5 -101t-101.5 -68.5t-123.5 -25.5q-66 0 -124.5 25.5t-101.5 68.5t-68.5 101t-25.5 124zM260 1124q0 -63 44 -108t108 -45q63 0 107 45t44 108 t-44 108.5t-107 45.5t-107.5 -45.5t-44.5 -108.5z" />
<glyph unicode="&#xb1;" horiz-adv-x="1142" d="M131 0v186h881v-186h-881zM131 602v186h348v269h187v-269h346v-186h-346v-268h-187v268h-348z" />
<glyph unicode="&#xb2;" horiz-adv-x="651" d="M39 821v154l338 315q35 35 45 58.5t10 52.5q0 47 -26.5 78.5t-81.5 31.5t-83 -31.5t-28 -78.5v-12h-174q2 51 18.5 101t49 89t86 62.5t131.5 23.5q76 0 129 -22.5t86.5 -59.5t50 -84t16.5 -96q0 -84 -29.5 -138.5t-93.5 -111.5l-192 -178h315v-154h-567z" />
<glyph unicode="&#xb3;" horiz-adv-x="657" d="M39 1059h172q4 -41 33.5 -68.5t81.5 -27.5q47 0 75.5 25.5t28.5 68.5q0 47 -32.5 73.5t-86.5 26.5h-67v156h67q55 0 87 21.5t32 62.5q0 53 -26.5 83.5t-81.5 30.5q-51 0 -79 -27.5t-32 -68.5h-172q6 49 23.5 94t50 80t84 55.5t125.5 20.5q76 0 130 -23.5t87.5 -60.5 t49 -83t15.5 -91q0 -41 -17.5 -90t-64.5 -86q39 -27 60.5 -85.5t21.5 -103.5q0 -98 -67.5 -165.5t-214.5 -67.5q-72 0 -123.5 21.5t-85 56.5t-51 80t-23.5 92z" />
<glyph unicode="&#xb4;" horiz-adv-x="632" d="M123 1169l137 265h277l-242 -265h-172z" />
<glyph unicode="&#xb6;" horiz-adv-x="1259" d="M55 1024q0 84 32 158.5t87 130t130 88.5t159 33h635v-1612h-195v1419h-225v-1419h-195v792h-20q-84 0 -159 33t-130 88.5t-87 130t-32 158.5z" />
<glyph unicode="&#xb7;" horiz-adv-x="618" d="M172 457v274h274v-274h-274z" />
<glyph unicode="&#xb8;" horiz-adv-x="555" d="M100 -324l133 324h177l-78 -324h-232z" />
<glyph unicode="&#xb9;" horiz-adv-x="454" d="M39 1284v229l158 140h174v-832h-174v600z" />
<glyph unicode="&#xba;" horiz-adv-x="675" d="M55 1106v49q0 57 14.5 110.5t47.5 94.5t87 65.5t134 24.5t134 -24.5t87 -65.5t47.5 -94.5t14.5 -110.5v-49q0 -57 -14.5 -110.5t-47.5 -95.5t-87 -66.5t-134 -24.5t-134 24.5t-87 66.5t-47.5 95.5t-14.5 110.5zM229 1073q0 -47 27 -78.5t82 -31.5t81.5 31.5t26.5 78.5 v115q0 47 -26.5 78.5t-81.5 31.5t-82 -31.5t-27 -78.5v-115z" />
<glyph unicode="&#xbb;" horiz-adv-x="995" d="M96 154v258l168 147l-168 148v258l353 -310v-192zM514 154v258l168 147l-168 148v258l352 -310v-192z" />
<glyph unicode="&#xbc;" horiz-adv-x="1794" d="M244 1065v229l157 140h174v-832h-174v600zM307 0l985 1434h195l-985 -1434h-195zM1075 180v152l355 499h174v-499h86v-152h-86v-180h-174v180h-355zM1280 332h150v211z" />
<glyph unicode="&#xbd;" horiz-adv-x="1794" d="M244 1065v229l157 140h174v-832h-174v600zM307 0l985 1434h195l-985 -1434h-195zM1100 0v154l338 315q35 35 45 58.5t10 52.5q0 47 -26.5 78.5t-82.5 31.5q-55 0 -82.5 -31.5t-27.5 -78.5v-13h-174q2 51 18.5 101.5t49 89.5t86 62.5t130.5 23.5q76 0 129.5 -22.5 t87 -59.5t50 -84t16.5 -96q0 -84 -29.5 -138.5t-93.5 -111.5l-192 -178h315v-154h-567z" />
<glyph unicode="&#xbe;" horiz-adv-x="1794" d="M127 840h172q4 -41 33.5 -69t81.5 -28q47 0 75.5 26t28.5 69q0 47 -32.5 73.5t-86.5 26.5h-67v156h67q55 0 87 21.5t32 62.5q0 53 -26.5 83.5t-81.5 30.5q-51 0 -79 -27.5t-32 -68.5h-172q6 49 23.5 94t50 80t84 55.5t125.5 20.5q76 0 130 -23.5t88 -60.5t49 -83t15 -91 q0 -41 -17.5 -90t-64.5 -86q39 -27 60.5 -85.5t21.5 -103.5q0 -98 -67.5 -165.5t-214.5 -67.5q-72 0 -123 21.5t-85 56t-51.5 80t-23.5 92.5zM307 0h195l985 1434h-195zM1075 180h355v-180h174v180h86v152h-86v499h-174l-355 -499v-152zM1280 332l150 211v-211h-150z" />
<glyph unicode="&#xbf;" horiz-adv-x="1019" d="M86 41q0 106 50 195.5t122 154.5l107 98q37 35 50 56.5t13 56.5v25h215v-45q0 -35 -5 -64t-19.5 -54.5t-39 -53t-61.5 -60.5l-106 -98q-41 -37 -76 -89t-35 -118q0 -121 62.5 -178t162.5 -57q98 0 160 54t66 169h215q-2 -127 -45 -210t-108.5 -132t-142.5 -68.5 t-145 -19.5q-70 0 -146.5 19.5t-142 68.5t-108.5 134t-43 216zM389 782v275h275v-275h-275z" />
<glyph unicode="&#xc0;" horiz-adv-x="1261" d="M16 0h226l120 346h537l121 -346h225l-502 1434h-225zM319 1749h281l168 -223h-186zM432 549l199 569l198 -569h-397z" />
<glyph unicode="&#xc1;" horiz-adv-x="1261" d="M16 0l502 1434h225l502 -1434h-225l-121 346h-537l-120 -346h-226zM432 549h397l-198 569zM481 1526l168 223h281l-262 -223h-187z" />
<glyph unicode="&#xc2;" horiz-adv-x="1261" d="M16 0h226l120 346h537l121 -346h225l-502 1434h-225zM274 1526l271 223h172l270 -223h-266l-90 73l-90 -73h-267zM432 549l199 569l198 -569h-397z" />
<glyph unicode="&#xc3;" horiz-adv-x="1261" d="M16 0l502 1434h225l502 -1434h-225l-121 346h-537l-120 -346h-226zM281 1522q12 76 39.5 123t61.5 72.5t67.5 33.5t58.5 8q27 0 52.5 -2t53.5 -14l78 -33q10 -4 20.5 -8t20.5 -4q41 0 62 57h186q-12 -78 -40 -124t-61.5 -71.5t-67.5 -33.5t-58 -8q-27 0 -52.5 2t-54.5 14 l-78 33l-20 8t-21 4q-41 0 -61 -57h-186zM432 549h397l-198 569z" />
<glyph unicode="&#xc4;" horiz-adv-x="1261" d="M16 0l502 1434h225l502 -1434h-225l-121 346h-537l-120 -346h-226zM326 1528v219h219v-219h-219zM432 549h397l-198 569zM717 1528v219h219v-219h-219z" />
<glyph unicode="&#xc5;" horiz-adv-x="1261" d="M16 0l502 1434h225l502 -1434h-225l-121 346h-537l-120 -346h-226zM432 549h397l-198 569zM479 1636q0 63 44 108.5t108 45.5q63 0 108 -45t45 -109q0 -63 -45 -107t-108 -44t-107.5 44t-44.5 107zM588 1636q0 -18 12 -30.5t31 -12.5q18 0 30.5 12.5t12.5 30.5 t-12.5 30.5t-30.5 12.5t-30.5 -12.5t-12.5 -30.5z" />
<glyph unicode="&#xc6;" horiz-adv-x="1761" d="M2 0l660 1434h980v-217h-626v-386h626v-217h-626v-397h626v-217h-845v346h-404l-160 -346h-231zM485 549h312v676z" />
<glyph unicode="&#xc7;" horiz-adv-x="1222" d="M109 485v463q0 117 36.5 210t104 158.5t163 101.5t210.5 36q111 0 201.5 -32.5t157.5 -92t106.5 -146.5t46.5 -194h-220q-6 63 -34.5 110.5t-68.5 78t-90 45t-99 14.5q-53 0 -106.5 -17.5t-95.5 -52t-67.5 -89t-25.5 -130.5v-463q0 -76 25.5 -130t67.5 -90t95 -52 t107 -16q49 0 99 14t90 45t68.5 77t34.5 111h220q-12 -190 -122 -310t-290 -146l-74 -312h-235l116 310q-193 27 -307 157.5t-114 341.5z" />
<glyph unicode="&#xc8;" horiz-adv-x="1116" d="M152 0h845v217h-626v397h626v217h-626v386h626v217h-845v-1434zM262 1749h281l168 -223h-187z" />
<glyph unicode="&#xc9;" horiz-adv-x="1116" d="M152 0v1434h845v-217h-626v-386h626v-217h-626v-397h626v-217h-845zM424 1526l168 223h280l-262 -223h-186z" />
<glyph unicode="&#xca;" horiz-adv-x="1116" d="M152 0h845v217h-626v397h626v217h-626v386h626v217h-845v-1434zM217 1526l270 223h172l271 -223h-266l-91 73l-90 -73h-266z" />
<glyph unicode="&#xcb;" horiz-adv-x="1116" d="M152 0v1434h845v-217h-626v-386h626v-217h-626v-397h626v-217h-845zM268 1528v219h219v-219h-219zM659 1528v219h220v-219h-220z" />
<glyph unicode="&#xcc;" horiz-adv-x="522" d="M-51 1749h280l168 -223h-186zM152 0h219v1434h-219v-1434z" />
<glyph unicode="&#xcd;" horiz-adv-x="522" d="M111 1526l168 223h280l-262 -223h-186zM152 0v1434h219v-1434h-219z" />
<glyph unicode="&#xce;" horiz-adv-x="522" d="M-96 1526l270 223h172l270 -223h-266l-90 73l-90 -73h-266zM152 0h219v1434h-219v-1434z" />
<glyph unicode="&#xcf;" horiz-adv-x="522" d="M-45 1528v219h219v-219h-219zM152 0v1434h219v-1434h-219zM346 1528v219h219v-219h-219z" />
<glyph unicode="&#xd0;" horiz-adv-x="1310" d="M31 645v146h143v643h514q115 0 210 -36t162.5 -101.5t104.5 -159t37 -209.5v-422q0 -117 -37 -210t-104.5 -158.5t-162.5 -101.5t-210 -36h-514v645h-143zM393 217h295q53 0 106.5 17.5t95.5 53.5t67.5 91t25.5 131v414q0 76 -25.5 131t-67.5 91t-95.5 53.5t-106.5 17.5 h-295v-426h295v-146h-295v-428z" />
<glyph unicode="&#xd1;" horiz-adv-x="1331" d="M152 0v1434h219l590 -1028v1028h219v-1434h-219l-590 1028v-1028h-219zM315 1522q12 76 40 123t62 72.5t67.5 33.5t58.5 8q27 0 52.5 -2t53.5 -14l78 -33q10 -4 20.5 -8t20.5 -4q41 0 61 57h187q-12 -78 -40 -124t-61.5 -71.5t-67.5 -33.5t-59 -8q-27 0 -52 2t-54 14 l-78 33q-10 4 -20.5 8t-20.5 4q-41 0 -61 -57h-187z" />
<glyph unicode="&#xd2;" horiz-adv-x="1245" d="M109 485q0 -117 36.5 -210t104 -158.5t163 -101t210.5 -35.5t210 35.5t162.5 101t104.5 159t37 209.5v463q0 117 -37 210t-104.5 158.5t-163 101.5t-209.5 36q-115 0 -210.5 -36t-163 -101.5t-104 -158.5t-36.5 -210v-463zM311 1749h281l168 -223h-187zM328 485v463 q0 76 25.5 130.5t67.5 89t95 52t107 17.5q53 0 106 -17.5t95 -52t68 -89t26 -130.5v-463q0 -76 -26 -130t-68 -90t-95 -52t-106 -16t-106.5 16t-95.5 52t-67.5 90.5t-25.5 129.5z" />
<glyph unicode="&#xd3;" horiz-adv-x="1245" d="M109 485v463q0 117 36.5 210t104 158.5t163 101.5t210.5 36t210 -36t162.5 -101.5t104.5 -158.5t37 -210v-463q0 -117 -37 -210t-104.5 -158.5t-163 -101t-209.5 -35.5q-115 0 -210.5 35.5t-163 101t-104 159t-36.5 209.5zM328 485q0 -76 25.5 -130t67.5 -90t95 -52 t107 -16q53 0 106 16t95 52t68 90.5t26 129.5v463q0 76 -26 130.5t-68 89t-95 52t-106 17.5t-106.5 -17.5t-95.5 -52t-67.5 -89t-25.5 -130.5v-463zM473 1526l168 223h281l-263 -223h-186z" />
<glyph unicode="&#xd4;" horiz-adv-x="1245" d="M109 485q0 -117 36.5 -210t104 -158.5t163 -101t210.5 -35.5t210 35.5t162.5 101t104.5 159t37 209.5v463q0 117 -37 210t-104.5 158.5t-163 101.5t-209.5 36q-115 0 -210.5 -36t-163 -101.5t-104 -158.5t-36.5 -210v-463zM266 1526l271 223h172l270 -223h-266l-90 73 l-91 -73h-266zM328 485v463q0 76 25.5 130.5t67.5 89t95 52t107 17.5q53 0 106 -17.5t95 -52t68 -89t26 -130.5v-463q0 -76 -26 -130t-68 -90t-95 -52t-106 -16t-106.5 16t-95.5 52t-67.5 90.5t-25.5 129.5z" />
<glyph unicode="&#xd5;" horiz-adv-x="1245" d="M109 485v463q0 117 36.5 210t104 158.5t163 101.5t210.5 36t210 -36t162.5 -101.5t104.5 -158.5t37 -210v-463q0 -117 -37 -210t-104.5 -158.5t-163 -101t-209.5 -35.5q-115 0 -210.5 35.5t-163 101t-104 159t-36.5 209.5zM272 1522q12 76 40 123t62 72.5t67.5 33.5 t58.5 8q27 0 52.5 -2t53.5 -14l78 -33q10 -4 20.5 -8t20.5 -4q41 0 61 57h187q-12 -78 -40 -124t-61.5 -71.5t-67.5 -33.5t-59 -8q-27 0 -52 2t-54 14l-78 33q-10 4 -20.5 8t-20.5 4q-41 0 -61 -57h-187zM328 485q0 -76 25.5 -130t67.5 -90t95 -52t107 -16q53 0 106 16 t95 52t68 90.5t26 129.5v463q0 76 -26 130.5t-68 89t-95 52t-106 17.5t-106.5 -17.5t-95.5 -52t-67.5 -89t-25.5 -130.5v-463z" />
<glyph unicode="&#xd6;" horiz-adv-x="1245" d="M109 485v463q0 117 36.5 210t104 158.5t163 101.5t210.5 36t210 -36t162.5 -101.5t104.5 -158.5t37 -210v-463q0 -117 -37 -210t-104.5 -158.5t-163 -101t-209.5 -35.5q-115 0 -210.5 35.5t-163 101t-104 159t-36.5 209.5zM317 1528v219h220v-219h-220zM328 485 q0 -76 25.5 -130t67.5 -90t95 -52t107 -16q53 0 106 16t95 52t68 90.5t26 129.5v463q0 76 -26 130.5t-68 89t-95 52t-106 17.5t-106.5 -17.5t-95.5 -52t-67.5 -89t-25.5 -130.5v-463zM709 1528v219h219v-219h-219z" />
<glyph unicode="&#xd7;" horiz-adv-x="1142" d="M125 260l313 315l-313 316l131 133l315 -317l316 317l131 -133l-316 -316l316 -315l-131 -133l-316 315l-315 -315z" />
<glyph unicode="&#xd8;" horiz-adv-x="1257" d="M115 20l92 152q-92 127 -92 313v463q0 117 36.5 210t104.5 158.5t163 101.5t210 36q92 0 170 -23.5t141 -66.5l80 129l123 -80l-94 -151q94 -129 94 -314v-463q0 -117 -37 -210t-104.5 -158.5t-163 -101t-209.5 -35.5q-184 0 -314 88l-75 -125zM334 485q0 -45 10 -90 l479 779q-41 33 -92 48t-102 15q-53 0 -106.5 -17.5t-95.5 -52t-67.5 -89t-25.5 -130.5v-463zM434 260q41 -33 91 -48t104 -15q53 0 106 16t95 52t68 90.5t26 129.5v463q0 49 -13 90z" />
<glyph unicode="&#xd9;" horiz-adv-x="1294" d="M133 485q0 -117 37 -210t104.5 -158.5t162.5 -101t210 -35.5t210 35.5t162.5 101t104.5 159t37 209.5v949h-219v-949q0 -76 -25.5 -130t-67.5 -90t-95.5 -52t-106.5 -16t-106.5 16t-95.5 52t-67.5 90.5t-25.5 129.5v949h-219v-949zM336 1749h280l168 -223h-186z" />
<glyph unicode="&#xda;" horiz-adv-x="1294" d="M133 485v949h219v-949q0 -76 25.5 -130t67.5 -90t95.5 -52t106.5 -16t106.5 16t95.5 52t67.5 90.5t25.5 129.5v949h219v-949q0 -117 -37 -210t-104.5 -158.5t-162.5 -101t-210 -35.5t-210 35.5t-162.5 101t-104.5 159t-37 209.5zM498 1526l168 223h280l-262 -223h-186z " />
<glyph unicode="&#xdb;" horiz-adv-x="1294" d="M133 485q0 -117 37 -210t104.5 -158.5t162.5 -101t210 -35.5t210 35.5t162.5 101t104.5 159t37 209.5v949h-219v-949q0 -76 -25.5 -130t-67.5 -90t-95.5 -52t-106.5 -16t-106.5 16t-95.5 52t-67.5 90.5t-25.5 129.5v949h-219v-949zM291 1526l270 223h172l271 -223h-267 l-90 73l-90 -73h-266z" />
<glyph unicode="&#xdc;" horiz-adv-x="1294" d="M133 485v949h219v-949q0 -76 25.5 -130t67.5 -90t95.5 -52t106.5 -16t106.5 16t95.5 52t67.5 90.5t25.5 129.5v949h219v-949q0 -117 -37 -210t-104.5 -158.5t-162.5 -101t-210 -35.5t-210 35.5t-162.5 101t-104.5 159t-37 209.5zM342 1528v219h219v-219h-219zM733 1528 v219h219v-219h-219z" />
<glyph unicode="&#xdd;" horiz-adv-x="1216" d="M-6 1434h242l372 -660l373 660h242l-506 -887v-547h-219v547zM459 1526l168 223h280l-262 -223h-186z" />
<glyph unicode="&#xde;" horiz-adv-x="1206" d="M152 0v1434h219v-248h325q125 0 216.5 -38t150.5 -101.5t88 -149.5t29 -180q0 -96 -29 -181t-88 -148.5t-150.5 -101.5t-216.5 -38h-325v-248h-219zM371 465h325q70 0 119 20.5t81 55t46 81t14 97.5t-14 97t-46 81t-81 55.5t-119 20.5h-325v-508z" />
<glyph unicode="&#xdf;" horiz-adv-x="1107" d="M141 0v1055q0 106 28 183t79 124t122.5 69.5t159.5 22.5t160 -22.5t123 -69.5t79 -124t28 -183q0 -174 -76 -269q80 -53 129 -141t49 -217q0 -115 -35 -199t-93 -139t-137 -82.5t-167 -27.5q-29 0 -54.5 3t-50.5 7v217q23 -10 47.5 -15.5t57.5 -5.5q63 0 105 19.5 t66.5 52.5t35 77t10.5 93q0 100 -60.5 170t-187.5 70h-74v198h45q92 0 133.5 49.5t41.5 139.5t-41 141t-134 51q-92 0 -133 -51t-41 -141v-1055h-215z" />
<glyph unicode="&#xe0;" horiz-adv-x="1112" d="M94 293q0 -82 30 -141.5t79 -97.5t114.5 -56t137.5 -18q104 0 184 29.5t131 90.5v-100h215v647q0 131 -43 216t-108.5 134.5t-142.5 68.5t-146 19q-63 0 -134 -16t-133.5 -56t-107.5 -109.5t-59 -174.5h219q23 76 79 113t136 37q94 0 154.5 -50.5t68.5 -154.5v-2 q-135 -10 -241.5 -21.5t-202.5 -40.5q-66 -20 -110 -56t-70.5 -79t-38 -90t-11.5 -92zM266 1434h277l137 -265h-172zM309 311q0 41 15.5 63.5t35.5 35.5q59 35 164 48t246 23v-59q0 -74 -26.5 -120t-67.5 -71.5t-91.5 -35t-95.5 -9.5q-86 0 -133 30t-47 95z" />
<glyph unicode="&#xe1;" horiz-adv-x="1112" d="M94 293q0 45 11.5 92t38 90t70.5 79t110 56q96 29 202.5 40.5t241.5 21.5v2q-8 104 -68.5 154.5t-154.5 50.5q-80 0 -136.5 -37t-78.5 -113h-219q14 104 59 174t107.5 110t133 56t134.5 16q70 0 146.5 -19t142 -68.5t108.5 -134.5t43 -216v-647h-215v100 q-51 -61 -131 -90.5t-184 -29.5q-72 0 -137.5 18t-114.5 56t-79 97.5t-30 141.5zM309 311q0 -66 47 -95.5t133 -29.5q45 0 95.5 9.5t91.5 35t67.5 71.5t26.5 120v59q-141 -10 -245.5 -23.5t-164.5 -47.5q-20 -12 -35.5 -35t-15.5 -64zM401 1169l138 265h276l-242 -265h-172z " />
<glyph unicode="&#xe2;" horiz-adv-x="1112" d="M94 293q0 45 11.5 92t38 90t70.5 79t110 56q96 29 202.5 40.5t241.5 21.5v2q-8 104 -68.5 154.5t-154.5 50.5q-80 0 -136.5 -37t-78.5 -113h-219q14 104 59 174t107.5 110t133 56t134.5 16q70 0 146.5 -19t142 -68.5t108.5 -134.5t43 -216v-647h-215v100 q-51 -61 -131 -90.5t-184 -29.5q-72 0 -137.5 18t-114.5 56t-79 97.5t-30 141.5zM203 1169l270 265h172l270 -265h-239l-117 115l-117 -115h-239zM309 311q0 -66 47 -95.5t133 -29.5q45 0 95.5 9.5t91.5 35t67.5 71.5t26.5 120v59q-141 -10 -245.5 -23.5t-164.5 -47.5 q-20 -12 -35.5 -35t-15.5 -64z" />
<glyph unicode="&#xe3;" horiz-adv-x="1112" d="M94 293q0 45 11.5 92t38 90t70.5 79t110 56q96 29 202.5 40.5t241.5 21.5v2q-8 104 -68.5 154.5t-154.5 50.5q-80 0 -136.5 -37t-78.5 -113h-219q14 104 59 174t107.5 110t133 56t134.5 16q70 0 146.5 -19t142 -68.5t108.5 -134.5t43 -216v-647h-215v100 q-51 -61 -131 -90.5t-184 -29.5q-72 0 -137.5 18t-114.5 56t-79 97.5t-30 141.5zM209 1186q12 76 39.5 123t61.5 72.5t68 33.5t58 8q27 0 52.5 -3t54.5 -15l78 -33q10 -4 24 -9t31 -5q18 0 33.5 13t27.5 48h172q-12 -78 -39.5 -124t-61.5 -71.5t-67.5 -33.5t-58.5 -8 q-27 0 -52.5 3t-54.5 15l-77 33q-10 4 -24.5 9t-31.5 5q-18 0 -33.5 -13t-27.5 -48h-172zM309 311q0 -66 47 -95.5t133 -29.5q45 0 95.5 9.5t91.5 35t67.5 71.5t26.5 120v59q-141 -10 -245.5 -23.5t-164.5 -47.5q-20 -12 -35.5 -35t-15.5 -64z" />
<glyph unicode="&#xe4;" horiz-adv-x="1112" d="M94 293q0 45 11.5 92t38 90t70.5 79t110 56q96 29 202.5 40.5t241.5 21.5v2q-8 104 -68.5 154.5t-154.5 50.5q-80 0 -136.5 -37t-78.5 -113h-219q14 104 59 174t107.5 110t133 56t134.5 16q70 0 146.5 -19t142 -68.5t108.5 -134.5t43 -216v-647h-215v100 q-51 -61 -131 -90.5t-184 -29.5q-72 0 -137.5 18t-114.5 56t-79 97.5t-30 141.5zM254 1192v219h215v-219h-215zM309 311q0 -66 47 -95.5t133 -29.5q45 0 95.5 9.5t91.5 35t67.5 71.5t26.5 120v59q-141 -10 -245.5 -23.5t-164.5 -47.5q-20 -12 -35.5 -35t-15.5 -64zM649 1192 v219h215v-219h-215z" />
<glyph unicode="&#xe5;" horiz-adv-x="1112" d="M94 293q0 45 11.5 92t38 90t70.5 79t110 56q96 29 202.5 40.5t241.5 21.5v2q-8 104 -68.5 154.5t-154.5 50.5q-80 0 -136.5 -37t-78.5 -113h-219q14 104 59 174t107.5 110t133 56t134.5 16q70 0 146.5 -19t142 -68.5t108.5 -134.5t43 -216v-647h-215v100 q-51 -61 -131 -90.5t-184 -29.5q-72 0 -137.5 18t-114.5 56t-79 97.5t-30 141.5zM309 311q0 -66 47 -95.5t133 -29.5q45 0 95.5 9.5t91.5 35t67.5 71.5t26.5 120v59q-141 -10 -245.5 -23.5t-164.5 -47.5q-20 -12 -35.5 -35t-15.5 -64zM408 1300q0 63 44 108.5t107 45.5 t108.5 -45t45.5 -109q0 -63 -45 -107t-109 -44q-63 0 -107 44t-44 107zM512 1300q0 -20 13.5 -33.5t33.5 -13.5t33.5 13.5t13.5 33.5t-13 34t-34 14q-20 0 -33.5 -14t-13.5 -34z" />
<glyph unicode="&#xe6;" horiz-adv-x="1753" d="M94 293q0 45 11.5 92t38 90t70.5 79t110 56q96 29 202.5 40.5t241.5 21.5q-8 104 -68.5 155.5t-154.5 51.5q-80 0 -136.5 -37t-78.5 -113h-219q14 104 59 174t107.5 110t133 56t134.5 16q41 0 86 -7t89 -23.5t84 -45t73 -73.5q72 92 161.5 120.5t171.5 28.5q70 0 147 -19 t142.5 -68.5t108.5 -134.5t43 -216v-190h-666v-35q0 -121 62.5 -178.5t162.5 -57.5q80 0 136.5 37t78.5 113h220q-14 -104 -59.5 -174t-108 -110t-133 -56t-134.5 -16q-49 0 -103 9t-105.5 31.5t-96.5 60.5t-78 93q-70 -115 -163 -154.5t-209 -39.5q-72 0 -137.5 18 t-114.5 56t-79 97.5t-30 141.5zM309 311q0 -66 47 -95.5t133 -29.5q45 0 95.5 9.5t91.5 35t67.5 71.5t26.5 120v59q-141 -10 -245.5 -23.5t-164.5 -47.5q-20 -12 -35.5 -35t-15.5 -64zM985 647h451q-2 117 -65 174.5t-161 57.5q-100 0 -162.5 -57.5t-62.5 -174.5z" />
<glyph unicode="&#xe7;" horiz-adv-x="1083" d="M113 418v229q0 131 43 216t108.5 134.5t142 68.5t146.5 19q66 0 138.5 -17t136 -60t108.5 -117t55 -186h-219q-16 88 -74.5 131t-144.5 43q-100 0 -162.5 -57.5t-62.5 -178.5v-221q0 -121 62.5 -178.5t162.5 -57.5q86 0 145.5 43t75.5 131h217q-8 -92 -40.5 -158.5 t-80 -110.5t-104.5 -68.5t-115 -34.5l-73 -312h-232l127 310q-66 8 -129 34.5t-115.5 76.5t-84 129t-31.5 192z" />
<glyph unicode="&#xe8;" horiz-adv-x="1095" d="M113 418q0 -131 43 -216t108.5 -134.5t142 -68.5t146.5 -19q63 0 134 16t133.5 56t107.5 109.5t59 174.5h-219q-23 -76 -79 -113t-136 -37q-100 0 -162.5 57.5t-62.5 178.5v35h665v190q0 131 -43 216t-108.5 134.5t-142 68.5t-146.5 19t-146.5 -19t-142 -68.5 t-108.5 -134.5t-43 -216v-229zM281 1434h276l137 -265h-172zM328 647v2q0 117 62.5 173.5t162.5 56.5q98 0 160.5 -56.5t64.5 -173.5v-2h-450z" />
<glyph unicode="&#xe9;" horiz-adv-x="1095" d="M113 418v229q0 131 43 216t108.5 134.5t142 68.5t146.5 19t146.5 -19t142 -68.5t108.5 -134.5t43 -216v-190h-665v-35q0 -121 62.5 -178.5t162.5 -57.5q80 0 136 37t79 113h219q-14 -104 -59 -174t-107.5 -110t-133.5 -56t-134 -16q-70 0 -146.5 19t-142 68.5 t-108.5 134.5t-43 216zM328 647h450v2q-2 117 -64.5 173.5t-160.5 56.5q-100 0 -162.5 -56.5t-62.5 -173.5v-2zM416 1169l137 265h276l-241 -265h-172z" />
<glyph unicode="&#xea;" horiz-adv-x="1095" d="M113 418v229q0 131 43 216t108.5 134.5t142 68.5t146.5 19t146.5 -19t142 -68.5t108.5 -134.5t43 -216v-190h-665v-35q0 -121 62.5 -178.5t162.5 -57.5q80 0 136 37t79 113h219q-14 -104 -59 -174t-107.5 -110t-133.5 -56t-134 -16q-70 0 -146.5 19t-142 68.5 t-108.5 134.5t-43 216zM197 1169l270 265h172l270 -265h-239l-117 115l-117 -115h-239zM328 647h450v2q-2 117 -64.5 173.5t-160.5 56.5q-100 0 -162.5 -56.5t-62.5 -173.5v-2z" />
<glyph unicode="&#xeb;" horiz-adv-x="1095" d="M113 418v229q0 131 43 216t108.5 134.5t142 68.5t146.5 19t146.5 -19t142 -68.5t108.5 -134.5t43 -216v-190h-665v-35q0 -121 62.5 -178.5t162.5 -57.5q80 0 136 37t79 113h219q-14 -104 -59 -174t-107.5 -110t-133.5 -56t-134 -16q-70 0 -146.5 19t-142 68.5 t-108.5 134.5t-43 216zM248 1192v219h215v-219h-215zM328 647h450v2q-2 117 -64.5 173.5t-160.5 56.5q-100 0 -162.5 -56.5t-62.5 -173.5v-2zM643 1192v219h215v-219h-215z" />
<glyph unicode="&#xec;" horiz-adv-x="497" d="M-25 1434h277l137 -265h-172zM141 0h215v1057h-215v-1057z" />
<glyph unicode="&#xed;" horiz-adv-x="497" d="M111 1169l137 265h276l-241 -265h-172zM141 0v1057h215v-1057h-215z" />
<glyph unicode="&#xee;" horiz-adv-x="497" d="M-109 1169l271 265h172l270 -265h-239l-117 115l-117 -115h-240zM141 0v1057h215v-1057h-215z" />
<glyph unicode="&#xef;" horiz-adv-x="497" d="M-57 1192v219h215v-219h-215zM141 0v1057h215v-1057h-215zM338 1192v219h215v-219h-215z" />
<glyph unicode="&#xf0;" horiz-adv-x="1105" d="M113 418v229q0 127 41 210t103 133t137 71.5t143 23.5l-68 93h-256v135h158l-88 121h258l88 -121h202v-135h-104l174 -240q39 -53 65.5 -123t26.5 -168v-229q0 -131 -43 -216t-108.5 -134.5t-142 -68.5t-146.5 -19t-146.5 19t-142 68.5t-108.5 134.5t-43 216zM328 422 q0 -121 62.5 -178.5t162.5 -57.5t162.5 57.5t62.5 178.5v221q0 121 -62.5 178.5t-162.5 57.5t-162.5 -57.5t-62.5 -178.5v-221z" />
<glyph unicode="&#xf1;" horiz-adv-x="1148" d="M141 0v1057h215v-92q12 23 36 44t56.5 38.5t72.5 27.5t81 10q68 0 142.5 -22.5t136 -74.5t101.5 -135t40 -206v-647h-215v643q0 121 -62.5 177.5t-162.5 56.5t-163 -56.5t-63 -177.5v-643h-215zM231 1186q12 76 40 123t62 72.5t67.5 33.5t58.5 8q27 0 52.5 -3t53.5 -15 l78 -33q10 -4 24.5 -9t30.5 -5q18 0 34 13t28 48h172q-12 -78 -40 -124t-61.5 -71.5t-67.5 -33.5t-58 -8q-27 0 -52.5 3t-54.5 15l-78 33q-10 4 -24.5 9t-30.5 5q-18 0 -33.5 -13t-28.5 -48h-172z" />
<glyph unicode="&#xf2;" horiz-adv-x="1105" d="M113 418q0 -131 43 -216t108.5 -134.5t142 -68.5t146.5 -19t146.5 19t142 68.5t108.5 134.5t43 216v229q0 131 -43 216t-108.5 134.5t-142 68.5t-146.5 19t-146.5 -19t-142 -68.5t-108.5 -134.5t-43 -216v-229zM281 1434h276l137 -265h-172zM328 422v221 q0 121 62.5 178.5t162.5 57.5t162.5 -57.5t62.5 -178.5v-221q0 -121 -62.5 -178.5t-162.5 -57.5t-162.5 57.5t-62.5 178.5z" />
<glyph unicode="&#xf3;" horiz-adv-x="1105" d="M113 418v229q0 131 43 216t108.5 134.5t142 68.5t146.5 19t146.5 -19t142 -68.5t108.5 -134.5t43 -216v-229q0 -131 -43 -216t-108.5 -134.5t-142 -68.5t-146.5 -19t-146.5 19t-142 68.5t-108.5 134.5t-43 216zM328 422q0 -121 62.5 -178.5t162.5 -57.5t162.5 57.5 t62.5 178.5v221q0 121 -62.5 178.5t-162.5 57.5t-162.5 -57.5t-62.5 -178.5v-221zM416 1169l137 265h276l-241 -265h-172z" />
<glyph unicode="&#xf4;" horiz-adv-x="1105" d="M113 418v229q0 131 43 216t108.5 134.5t142 68.5t146.5 19t146.5 -19t142 -68.5t108.5 -134.5t43 -216v-229q0 -131 -43 -216t-108.5 -134.5t-142 -68.5t-146.5 -19t-146.5 19t-142 68.5t-108.5 134.5t-43 216zM197 1169l270 265h172l270 -265h-239l-117 115l-117 -115 h-239zM328 422q0 -121 62.5 -178.5t162.5 -57.5t162.5 57.5t62.5 178.5v221q0 121 -62.5 178.5t-162.5 57.5t-162.5 -57.5t-62.5 -178.5v-221z" />
<glyph unicode="&#xf5;" horiz-adv-x="1105" d="M113 418v229q0 131 43 216t108.5 134.5t142 68.5t146.5 19t146.5 -19t142 -68.5t108.5 -134.5t43 -216v-229q0 -131 -43 -216t-108.5 -134.5t-142 -68.5t-146.5 -19t-146.5 19t-142 68.5t-108.5 134.5t-43 216zM203 1186q12 76 39.5 123t61.5 72.5t68 33.5t58 8 q27 0 52.5 -3t54.5 -15l77 -33q10 -4 24.5 -9t31.5 -5q18 0 33.5 13t27.5 48h172q-12 -78 -39.5 -124t-61.5 -71.5t-68 -33.5t-58 -8q-27 0 -52.5 3t-54.5 15l-77 33q-10 4 -24.5 9t-31.5 5q-18 0 -33.5 -13t-27.5 -48h-172zM328 422q0 -121 62.5 -178.5t162.5 -57.5 t162.5 57.5t62.5 178.5v221q0 121 -62.5 178.5t-162.5 57.5t-162.5 -57.5t-62.5 -178.5v-221z" />
<glyph unicode="&#xf6;" horiz-adv-x="1105" d="M113 418v229q0 131 43 216t108.5 134.5t142 68.5t146.5 19t146.5 -19t142 -68.5t108.5 -134.5t43 -216v-229q0 -131 -43 -216t-108.5 -134.5t-142 -68.5t-146.5 -19t-146.5 19t-142 68.5t-108.5 134.5t-43 216zM248 1192v219h215v-219h-215zM328 422q0 -121 62.5 -178.5 t162.5 -57.5t162.5 57.5t62.5 178.5v221q0 121 -62.5 178.5t-162.5 57.5t-162.5 -57.5t-62.5 -178.5v-221zM643 1192v219h215v-219h-215z" />
<glyph unicode="&#xf7;" horiz-adv-x="1142" d="M131 481v187h881v-187h-881zM434 219q0 57 40 97t97 40t97.5 -40t40.5 -97t-40 -97t-98 -40q-57 0 -97 40t-40 97zM434 930q0 57 40 97t97 40t97.5 -40t40.5 -97t-40 -97t-98 -40q-57 0 -97 40t-40 97z" />
<glyph unicode="&#xf8;" horiz-adv-x="1118" d="M119 29l80 110q-37 49 -58.5 118t-21.5 161v229q0 131 43 216t108.5 134.5t142 68.5t146.5 19q61 0 130 -15t130 -54l70 98l110 -78l-79 -112q37 -49 58 -117t21 -160v-229q0 -131 -43 -216t-108.5 -134.5t-142 -68.5t-146.5 -19q-63 0 -132 15t-130 52l-68 -96zM334 422 q0 -47 8 -80l354 500q-55 37 -137 37q-100 0 -162.5 -57.5t-62.5 -178.5v-221zM422 223q55 -37 137 -37q100 0 162.5 57.5t62.5 178.5v221q0 47 -8 78z" />
<glyph unicode="&#xf9;" horiz-adv-x="1136" d="M127 418q0 -117 38 -200t97.5 -136t132 -77.5t140.5 -24.5q41 0 80.5 10t72.5 26.5t56.5 39t35.5 44.5v-100h215v1057h-215v-635q0 -121 -61.5 -177.5t-157.5 -56.5t-157.5 56.5t-61.5 177.5v635h-215v-639zM289 1434h276l137 -265h-172z" />
<glyph unicode="&#xfa;" horiz-adv-x="1136" d="M127 418v639h215v-635q0 -121 61.5 -177.5t157.5 -56.5t157.5 56.5t61.5 177.5v635h215v-1057h-215v100q-12 -23 -35.5 -45t-56.5 -38.5t-73 -26.5t-80 -10q-68 0 -140.5 24.5t-132 77.5t-97.5 136t-38 200zM424 1169l137 265h277l-242 -265h-172z" />
<glyph unicode="&#xfb;" horiz-adv-x="1136" d="M127 418v639h215v-635q0 -121 61.5 -177.5t157.5 -56.5t157.5 56.5t61.5 177.5v635h215v-1057h-215v100q-12 -23 -35.5 -45t-56.5 -38.5t-73 -26.5t-80 -10q-68 0 -140.5 24.5t-132 77.5t-97.5 136t-38 200zM205 1169l270 265h172l271 -265h-240l-117 115l-117 -115h-239 z" />
<glyph unicode="&#xfc;" horiz-adv-x="1136" d="M127 418v639h215v-635q0 -121 61.5 -177.5t157.5 -56.5t157.5 56.5t61.5 177.5v635h215v-1057h-215v100q-12 -23 -35.5 -45t-56.5 -38.5t-73 -26.5t-80 -10q-68 0 -140.5 24.5t-132 77.5t-97.5 136t-38 200zM256 1192v219h215v-219h-215zM651 1192v219h215v-219h-215z " />
<glyph unicode="&#xfd;" horiz-adv-x="974" d="M0 1057h223l264 -752l265 752h223l-469 -1301q-47 -133 -234 -133h-110v207h43q39 0 61.5 4t35.5 16.5t23.5 33t22.5 53.5l29 77zM350 1169l137 265h277l-242 -265h-172z" />
<glyph unicode="&#xfe;" horiz-adv-x="1134" d="M141 -377v1811h215v-469q12 23 36 44t56.5 38.5t72.5 27.5t81 10q68 0 142.5 -22.5t136 -74.5t101.5 -135t40 -206v-229q0 -123 -40 -206t-101.5 -135t-136 -74.5t-142.5 -22.5q-41 0 -81 10t-72.5 26.5t-56 39t-36.5 44.5v-477h-215zM356 422q0 -121 62.5 -177.5 t163.5 -56.5q100 0 162.5 56.5t62.5 177.5v221q0 121 -62.5 177.5t-162.5 56.5t-163 -56.5t-63 -177.5v-221z" />
<glyph unicode="&#xff;" horiz-adv-x="974" d="M0 1057h223l264 -752l265 752h223l-469 -1301q-47 -133 -234 -133h-110v207h43q39 0 61.5 4t35.5 16.5t23.5 33t22.5 53.5l29 77zM182 1192v219h215v-219h-215zM578 1192v219h215v-219h-215z" />
<glyph unicode="&#x152;" horiz-adv-x="1882" d="M109 485v463q0 117 36.5 210t104 158.5t163 101.5t210.5 36q188 0 295 -102v82h845v-217h-626v-386h626v-217h-626v-397h626v-217h-845v82q-106 -102 -295 -102q-115 0 -210.5 35.5t-163 101t-104 159t-36.5 209.5zM328 485q0 -76 25.5 -130t67.5 -90t95 -52t107 -16 q53 0 106 16t95 52t68 90.5t26 129.5v463q0 76 -26 130.5t-68 89t-95 52t-106 17.5t-106.5 -17.5t-95.5 -52t-67.5 -89t-25.5 -130.5v-463z" />
<glyph unicode="&#x153;" horiz-adv-x="1761" d="M113 418v229q0 131 43 216t108.5 134.5t142 68.5t146.5 19q41 0 86 -7t89 -23.5t84 -45t73 -73.5q72 92 162 120.5t172 28.5q70 0 146.5 -19t142 -68.5t108.5 -134.5t43 -216v-190h-666v-35q0 -121 62.5 -178.5t163.5 -57.5q80 0 136 37t79 113h219q-14 -104 -59.5 -174 t-108 -110t-133 -56t-133.5 -16q-82 0 -172.5 28.5t-161.5 120.5q-33 -45 -73 -73.5t-84 -46t-89 -23.5t-86 -6q-70 0 -146.5 19t-142 68.5t-108.5 134.5t-43 216zM328 422q0 -121 62.5 -178.5t162.5 -57.5t162.5 57.5t62.5 178.5v221q0 121 -62.5 178.5t-162.5 57.5 t-162.5 -57.5t-62.5 -178.5v-221zM993 647h451q-2 117 -64.5 174.5t-160.5 57.5q-100 0 -163 -57.5t-63 -174.5z" />
<glyph unicode="&#x178;" horiz-adv-x="1216" d="M-6 1434h242l372 -660l373 660h242l-506 -887v-547h-219v547zM303 1528v219h219v-219h-219zM694 1528v219h219v-219h-219z" />
<glyph unicode="&#x2c6;" horiz-adv-x="925" d="M106 1169l271 265h172l270 -265h-239l-117 115l-117 -115h-240z" />
<glyph unicode="&#x2dc;" horiz-adv-x="925" d="M113 1186q12 76 39.5 123t61.5 72.5t67.5 33.5t58.5 8q27 0 52.5 -3t53.5 -15l78 -33q10 -4 24.5 -9t31.5 -5q18 0 33.5 13t27.5 48h172q-12 -78 -40 -124t-61.5 -71.5t-67.5 -33.5t-58 -8q-27 0 -52.5 3t-54.5 15l-78 33q-10 4 -24.5 9t-30.5 5q-18 0 -33.5 -13 t-27.5 -48h-172z" />
<glyph unicode="&#x2000;" horiz-adv-x="895" />
<glyph unicode="&#x2001;" horiz-adv-x="1790" />
<glyph unicode="&#x2002;" horiz-adv-x="895" />
<glyph unicode="&#x2003;" horiz-adv-x="1790" />
<glyph unicode="&#x2004;" horiz-adv-x="596" />
<glyph unicode="&#x2005;" horiz-adv-x="447" />
<glyph unicode="&#x2006;" horiz-adv-x="298" />
<glyph unicode="&#x2007;" horiz-adv-x="298" />
<glyph unicode="&#x2008;" horiz-adv-x="223" />
<glyph unicode="&#x2009;" horiz-adv-x="358" />
<glyph unicode="&#x200a;" horiz-adv-x="99" />
<glyph unicode="&#x2010;" horiz-adv-x="794" d="M100 481v187h594v-187h-594z" />
<glyph unicode="&#x2011;" horiz-adv-x="794" d="M100 481v187h594v-187h-594z" />
<glyph unicode="&#x2012;" horiz-adv-x="794" d="M100 481v187h594v-187h-594z" />
<glyph unicode="&#x2013;" horiz-adv-x="1081" d="M100 481v187h881v-187h-881z" />
<glyph unicode="&#x2014;" horiz-adv-x="1705" d="M100 481v187h1506v-187h-1506z" />
<glyph unicode="&#x2018;" horiz-adv-x="528" d="M127 946v275l80 213h162l-80 -213h112v-275h-274z" />
<glyph unicode="&#x2019;" horiz-adv-x="528" d="M127 1159v275h274v-275l-79 -213h-162l80 213h-113z" />
<glyph unicode="&#x201a;" horiz-adv-x="528" d="M127 0v274h274v-274l-79 -213h-162l80 213h-113z" />
<glyph unicode="&#x201c;" horiz-adv-x="940" d="M127 946v275l80 213h162l-80 -213h112v-275h-274zM539 946v275l79 213h162l-80 -213h113v-275h-274z" />
<glyph unicode="&#x201d;" horiz-adv-x="940" d="M127 1159v275h274v-275l-79 -213h-162l80 213h-113zM539 1159v275h274v-275l-80 -213h-162l80 213h-112z" />
<glyph unicode="&#x201e;" horiz-adv-x="940" d="M127 0v274h274v-274l-79 -213h-162l80 213h-113zM539 0v274h274v-274l-80 -213h-162l80 213h-112z" />
<glyph unicode="&#x2022;" horiz-adv-x="1638" d="M475 713q0 72 26.5 134t74 109.5t110 74t133.5 26.5q72 0 134.5 -26.5t109.5 -74t73.5 -110t26.5 -133.5q0 -72 -26.5 -134.5t-73.5 -109.5t-109.5 -73.5t-134.5 -26.5t-134 26.5t-109.5 73.5t-74 109.5t-26.5 134.5z" />
<glyph unicode="&#x2026;" horiz-adv-x="1708" d="M147 0v274h275v-274h-275zM717 0v274h274v-274h-274zM1286 0v274h275v-274h-275z" />
<glyph unicode="&#x202f;" horiz-adv-x="358" />
<glyph unicode="&#x2039;" horiz-adv-x="577" d="M104 463v192l353 310v-258l-168 -148l168 -147v-258z" />
<glyph unicode="&#x203a;" horiz-adv-x="577" d="M121 154v258l168 147l-168 148v258l352 -310v-192z" />
<glyph unicode="&#x205f;" horiz-adv-x="447" />
<glyph unicode="&#x20ac;" horiz-adv-x="1226" d="M78 784l35 136h129v28q0 117 36.5 210t104.5 158.5t163 101.5t210 36q229 0 368 -133l-149 -162q-43 45 -101.5 66.5t-117.5 21.5q-55 0 -108.5 -18.5t-96.5 -55t-68.5 -93t-25.5 -132.5v-28h532l-35 -136h-497v-133h463l-35 -135h-428v-31q0 -76 25.5 -132t68.5 -93 t96 -55.5t109 -18.5q59 0 117.5 21.5t101.5 66.5l149 -161q-68 -66 -161 -99.5t-207 -33.5q-115 0 -210 35.5t-163 101t-104.5 159t-36.5 209.5v31h-158l35 135h123v133h-164z" />
<glyph unicode="&#x2122;" horiz-adv-x="1540" d="M2 1268v166h637v-166h-231v-666h-175v666h-231zM721 602v832h168l201 -418l200 418h170v-832h-168v508l-135 -285h-133l-135 285v-508h-168z" />
<glyph unicode="&#x25fc;" horiz-adv-x="1054" d="M0 0v1055h1055v-1055h-1055z" />
</font>
</defs>
</svg>
